<svg xmlns="http://www.w3.org/2000/svg" viewBox="0 0 124.6 124.6"><path fill="#f63f61" d="M57.5 38.9c-.8.2-1.5.4-2.3.6.7-.2 1.5-.4 2.3-.6zm3.6-.4c-.8 0-1.6.1-2.4.2.7-.1 1.5-.2 2.4-.2z"/><path fill="#9e394f" d="M62.3 124.6c-17.7 0-33.7-7.4-45.1-19.3-.7-.7-1.4-1.5-2-2.2l-1.5-1.8C8.5 94.8 4.5 87.2 2.3 78.9c-.2-.7-.4-1.5-.6-2.2C1.2 74.5.8 72.3.5 70c-.1-.9-.2-1.9-.3-2.8-.1-1.6-.2-3.3-.2-4.9C0 51.7 8.6 43 19.2 43c5.3 0 10.1 2.2 13.6 5.6 3.5 3.5 5.6 8.3 5.6 13.6C38.4 75.4 49.1 86 62.2 86c-5.3 0-10.1 2.2-13.6 5.6-3.5 3.5-5.6 8.3-5.6 13.6 0 10.7 8.6 19.3 19.3 19.4zm20.3-50z"/><path fill="#faae00" d="M124.6 62.3c0 34.4-27.9 62.3-62.3 62.3-10.6 0-19.2-8.6-19.2-19.2 0-5.3 2.1-10.1 5.6-13.6 3.5-3.5 8.3-5.6 13.6-5.6 6.6 0 12.5-2.7 16.8-7 .5-.5 1.1-1.1 1.5-1.7.2-.3.5-.6.7-.9.5-.6.9-1.2 1.3-1.9 2.2-3.6 3.4-7.8 3.4-12.4 0 5.3 2.2 10.1 5.6 13.6 3.5 3.5 8.3 5.6 13.6 5.6 10.7 0 19.4-8.6 19.4-19.2z"/><path fill="#f63f61" d="M81.5 19.2c0 5.3-2.2 10.1-5.6 13.6-3.5 3.5-8.3 5.6-13.6 5.6h-1.2c-.8 0-1.6.1-2.4.2-.4.1-.8.1-1.2.2-.8.2-1.5.4-2.3.6-2.2.7-4.3 1.7-6.2 3-1 .6-1.8 1.4-2.7 2.1-.3.3-.6.5-.8.8l-.8.8c-.8.9-1.5 1.7-2.1 2.7-1.3 1.9-2.3 4-3 6.2-.2.7-.4 1.5-.6 2.3-.1.4-.1.8-.2 1.2-.1.8-.2 1.6-.2 2.4v1.2c0-5.3-2.1-10.1-5.6-13.6-3.5-3.5-8.3-5.6-13.6-5.6C8.6 43 0 51.7 0 62.3c0-12 3.4-23.3 9.3-32.8.8-1.4 1.7-2.7 2.7-4 .7-1 1.4-1.9 2.2-2.9.6-.8 1.3-1.5 2-2.3.7-.7 1.4-1.5 2.1-2.2 1.8-1.8 3.6-3.4 5.6-5 .6-.5 1.2-1 1.9-1.4 1.4-1 2.8-2 4.3-2.8 1.3-.8 2.6-1.5 3.9-2.2 3.6-1.8 7.4-3.3 11.3-4.4 1-.3 2-.5 3-.8 2-.5 4.1-.8 6.1-1.1 1-.1 2.1-.2 3.1-.3 1.6 0 3.2-.1 4.8-.1 10.6 0 19.2 8.6 19.2 19.2z"/><path fill="#f86a42" d="M124.6 62.3c0 10.6-8.6 19.2-19.2 19.2-5.3 0-10.1-2.1-13.6-5.6-3.5-3.5-5.6-8.3-5.6-13.6 0-1.2-.1-2.4-.3-3.6-.1-.8-.3-1.6-.5-2.3-.6-2.3-1.5-4.4-2.7-6.4-.4-.7-.8-1.3-1.3-1.9-.2-.3-.5-.6-.7-.9-.5-.6-1-1.2-1.5-1.7l-.8-.8-.6-.6c-.3-.3-.7-.6-1.1-.8-.3-.3-.7-.5-1-.7-1.9-1.3-4-2.3-6.2-3-.7-.2-1.5-.4-2.3-.6-.4-.1-.8-.1-1.2-.2-.8-.1-1.6-.2-2.4-.2h-1.2c5.3 0 10.1-2.1 13.6-5.6 3.5-3.5 5.6-8.3 5.6-13.6C81.5 8.6 72.9 0 62.3 0c34.4 0 62.3 27.9 62.3 62.3z"/><path fill="#f63f61" d="M67.1 38.9c.8.2 1.5.4 2.3.6-.8-.2-1.5-.4-2.3-.6zm12 6.5c.5.5 1.1 1.1 1.5 1.7-.4-.6-.9-1.1-1.5-1.7zm3.5 4.5c-.4-.7-.8-1.3-1.3-1.9.5.6.9 1.3 1.3 1.9z"/></svg>