<svg xmlns="http://www.w3.org/2000/svg" xml:space="preserve" width="64" height="64" fill="#fff" stroke="#fff" viewBox="0 0 122.934 122.934"><path d="M7.241 89.541c.386-.298 1.005-.447 1.855-.447 1.646 0 3.601.521 5.866 1.558l2.005-5.054c-2.607-1.159-5.165-1.739-7.671-1.739-2.839 0-5.07.623-6.694 1.873C.978 86.98.166 88.719.166 90.951c0 1.192.19 2.225.572 3.1.381.87.966 1.645 1.756 2.318s1.975 1.369 3.554 2.088c1.746.783 2.82 1.304 3.223 1.558s.696.505.878.754c.183.248.273.539.273.869 0 .531-.226.965-.679 1.302-.453.338-1.166.506-2.138.506-1.126 0-2.364-.181-3.711-.539a19.306 19.306 0 0 1-3.894-1.5v5.834c1.182.562 2.32.959 3.413 1.184 1.094.227 2.447.34 4.06.34 1.933 0 3.618-.322 5.053-.969 1.436-.646 2.535-1.553 3.297-2.717.763-1.166 1.144-2.5 1.144-4.002 0-1.635-.406-2.992-1.218-4.067-.812-1.077-2.261-2.087-4.349-3.024-2.177-.992-3.51-1.678-4.002-2.055-.492-.375-.737-.801-.737-1.275 0-.446.193-.817.58-1.115zM19.354 108.43h14.382v-5.335h-7.837v-4.574h7.257v-5.252h-7.257v-3.81h7.837v-5.253H19.354zM41.906 84.106l-7.903 24.323h7.191l1.227-4.541h7.87l1.193 4.541h7.158l-8.003-24.323h-8.733zm1.873 14.415c1.005-3.8 1.654-6.345 1.947-7.638s.489-2.222.588-2.784c.111.608.34 1.613.688 3.018.348 1.402.644 2.545.887 3.429l1.043 3.978h-5.153v-.003zM77.714 91.364c0-4.773-3.292-7.158-9.875-7.158h-7.937v24.224h6.545v-8.815h1.658l5.135 8.815h7.424l-7.059-10.556c2.738-1.534 4.109-3.705 4.109-6.51zm-10.041 3.33h-1.228v-5.535h1.293c2.242 0 3.363.836 3.363 2.502.003 2.023-1.142 3.033-3.428 3.033zM92.296 89.226c1.026 0 1.987.145 2.883.432s1.79.642 2.685 1.062l2.004-5.151a17.182 17.182 0 0 0-7.506-1.709c-2.396 0-4.48.513-6.254 1.533-1.771 1.022-3.132 2.483-4.076 4.383-.943 1.9-1.416 4.104-1.416 6.61 0 4.011.975 7.074 2.925 9.196 1.948 2.119 4.752 3.181 8.407 3.181 2.553 0 4.84-.446 6.86-1.342v-5.534c-1.017.42-2.026.78-3.032 1.077a10.902 10.902 0 0 1-3.115.446c-3.547 0-5.319-2.329-5.319-6.991 0-2.242.437-4.001 1.31-5.276.871-1.281 2.086-1.917 3.644-1.917zM116.355 84.206v8.98h-7.605v-8.98h-6.577v24.224h6.577v-9.875h7.605v9.875h6.579V84.206z"/><path d="M62.378 75.606a3.946 3.946 0 0 0 4.479-3.334c.808-5.498 1.74-9.517 2.815-12.552v12.431c0 1.063.206 2.055.567 2.965a4.793 4.793 0 0 0-.047.627v5.965c5.57.666 8.125 3.263 9.267 5.828.021-.031.046-.061.067-.092v-6.342c.185.008.369.022.556.022.036 0 .071-.005.108-.005v5.4a12.968 12.968 0 0 1 3.817-3.375c1.644-.947 3.492-1.549 5.513-1.808v-5.365a7.969 7.969 0 0 0 .967-3.821V55.687c.326-.088.646-.218.951-.397.148-.071.332-.135.531-.212 1.529-.592 4.691-1.82 6.631-5.529l18.155 11.201c.646.398 1.36.588 2.067.588a3.937 3.937 0 0 0 3.363-1.877 3.946 3.946 0 0 0-1.285-5.431l-20.681-12.758c-.002-.115-.001-.223-.005-.338a3.94 3.94 0 0 0-4.62-3.74 16.977 16.977 0 0 0 1.048-5.877c0-9.455-7.691-17.146-17.146-17.146s-17.147 7.69-17.147 17.146 7.692 17.146 17.147 17.146c4.291 0 8.216-1.587 11.226-4.2.29.431.667.81 1.129 1.109-.411 1.045-1.04 1.563-1.754 1.924-4.101 1.724-5.93 2.564-9.116 2.724l1.574 10.166-2.451 3.357h-.048l-2.452-3.357 1.213-10.296c-3.718-.184-7.539-1.125-10.348-3.215-5.577 5.044-7.522 11.466-9.427 24.453a3.952 3.952 0 0 0 3.336 4.478zm17.121-30.701c-7.493 0-13.589-6.096-13.589-13.589 0-7.492 6.097-13.587 13.589-13.587 7.491 0 13.589 6.095 13.589 13.587 0 7.494-6.098 13.589-13.589 13.589z"/><path d="M81.186 28.457c-2.603 0-4.713-.964-4.713-2.153 0-.098.021-.194.049-.289a6.275 6.275 0 0 0-3.183 5.458 6.281 6.281 0 0 0 12.563 0 6.24 6.24 0 0 0-1.23-3.721c-.864.433-2.104.705-3.486.705z"/></svg>